<svg width="48" height="48" viewBox="0 0 48 48" fill="none" xmlns="http://www.w3.org/2000/svg">
<g clip-path="url(#clip0_208_14683)">
<path d="M8.19701 23.7654H8.80407H20.0982H28.5688H39.8629H40.47C43.2511 23.7654 45.51 21.5066 45.51 18.7254V12.4713H3.15701V18.7254C3.15701 21.5066 5.41584 23.7654 8.19701 23.7654Z" fill="white"/>
<path d="M37.0391 26.5892H31.3921V29.4127H37.0391V26.5892Z" fill="white"/>
<path d="M40.47 26.589H39.8629V29.4125C39.8629 30.9655 38.5923 32.2361 37.0394 32.2361H31.3923C29.8394 32.2361 28.5688 30.9655 28.5688 29.4125V26.589H20.0982V29.4125C20.0982 30.9655 18.8276 32.2361 17.2747 32.2361H11.6276C10.0747 32.2361 8.80407 30.9655 8.80407 29.4125V26.589H8.19701C6.27701 26.589 4.52642 25.8972 3.15701 24.7537V40.7066H45.51V24.7537C44.1405 25.8972 42.39 26.589 40.47 26.589Z" fill="white"/>
<path d="M17.2744 26.5892H11.6273V29.4127H17.2744V26.5892Z" fill="white"/>
<path d="M45.5098 9.64804H32.804V6.82451C32.804 5.27156 31.5334 4.00098 29.9804 4.00098H18.6863C17.1334 4.00098 15.8628 5.27156 15.8628 6.82451V9.64804H3.1569C1.60396 9.64804 0.333374 10.9186 0.333374 12.4716V40.7069C0.333374 42.2598 1.60396 43.5304 3.1569 43.5304H45.5098C47.0628 43.5304 48.3334 42.2598 48.3334 40.7069V12.4716C48.3334 10.9186 47.0628 9.64804 45.5098 9.64804ZM18.6863 6.82451H29.9804V9.64804H18.6863V6.82451ZM3.1569 12.4716H45.5098V18.7257C45.5098 21.5069 43.251 23.7657 40.4698 23.7657H39.8628H28.5687H20.0981H8.80396H8.1969C5.41573 23.7657 3.1569 21.5069 3.1569 18.7257V12.4716ZM37.0393 29.4127H31.3922V26.5892H37.0393V29.4127ZM17.2746 29.4127H11.6275V26.5892H17.2746V29.4127ZM3.1569 40.7069V24.7539C4.52632 25.8974 6.2769 26.5892 8.1969 26.5892H8.80396V29.4127C8.80396 30.9657 10.0746 32.2363 11.6275 32.2363H17.2746C18.8275 32.2363 20.0981 30.9657 20.0981 29.4127V26.5892H28.5687V29.4127C28.5687 30.9657 29.8393 32.2363 31.3922 32.2363H37.0393C38.5922 32.2363 39.8628 30.9657 39.8628 29.4127V26.5892H40.4698C42.3898 26.5892 44.1404 25.8974 45.5098 24.7539V40.7069H3.1569Z" fill="#243142"/>
</g>
<defs>
<clipPath id="clip0_208_14683">
<rect width="48" height="48" fill="white"/>
</clipPath>
</defs>
</svg>
