<svg width="48" height="48" viewBox="0 0 48 48" fill="none" xmlns="http://www.w3.org/2000/svg" aria-hidden="true">
  <title data-svg="true">Image gallery (camera)</title>
  <rect width="48" height="48" fill="white"/>
  <path d="M24 29.4118C26.3391 29.4118 28.2353 27.5156 28.2353 25.1765C28.2353 22.8374 26.3391 20.9412 24 20.9412C21.6609 20.9412 19.7647 22.8374 19.7647 25.1765C19.7647 27.5156 21.6609 29.4118 24 29.4118Z" fill="white"/>
  <path d="M23.9995 35.0588C29.449 35.0588 33.8819 30.6258 33.8819 25.1764C33.8819 19.727 29.449 15.2941 23.9995 15.2941C18.5501 15.2941 14.1172 19.727 14.1172 25.1764C14.1172 30.6258 18.5501 35.0588 23.9995 35.0588ZM23.9995 18.1176C27.896 18.1176 31.0584 21.2799 31.0584 25.1764C31.0584 29.0729 27.896 32.2352 23.9995 32.2352C20.1031 32.2352 16.9407 29.0729 16.9407 25.1764C16.9407 21.2799 20.1031 18.1176 23.9995 18.1176Z" fill="white"/>
  <path d="M36.7056 25.1765C36.7056 32.1788 31.0021 37.8823 23.9997 37.8823C16.9974 37.8823 11.2938 32.1788 11.2938 25.1765C11.2938 23.6941 11.5621 22.2682 12.0421 20.9412H2.82324V40.7059H45.1762V20.9412H35.9574C36.4374 22.2682 36.7056 23.6941 36.7056 25.1765Z" fill="white"/>
  <path d="M11.2945 6.82349H5.64746V9.64702H11.2945V6.82349Z" fill="white"/>
  <path d="M13.3409 12.3154C13.3268 12.3154 13.3127 12.3154 13.2985 12.3295C13.115 12.4142 12.9174 12.4706 12.7056 12.4706H4.23501H2.82324V18.1177H13.4397C15.7268 14.7154 19.595 12.4706 23.9997 12.4706C28.4044 12.4706 32.2727 14.7154 34.5597 18.1177H45.1762V8.23535H21.515L13.3409 12.3154ZM35.2938 11.7648H40.9409C41.7174 11.7648 42.3527 12.4001 42.3527 13.1765C42.3527 13.953 41.7174 14.5883 40.9409 14.5883H35.2938C34.5174 14.5883 33.8821 13.953 33.8821 13.1765C33.8821 12.4001 34.5174 11.7648 35.2938 11.7648Z" fill="white"/>
  <path d="M46.5882 5.41176H21.1765C20.9506 5.41176 20.7388 5.46823 20.5412 5.56706L14.1176 8.77176V5.41176C14.1176 4.63529 13.4824 4 12.7059 4H4.23529C3.45882 4 2.82353 4.63529 2.82353 5.41176V9.64706H1.41176C0.635294 9.64706 0 10.2824 0 11.0588V42.1176C0 42.8941 0.635294 43.5294 1.41176 43.5294H46.5882C47.3647 43.5294 48 42.8941 48 42.1176V6.82353C48 6.04706 47.3647 5.41176 46.5882 5.41176ZM5.64706 6.82353H11.2941V9.64706H5.64706V6.82353ZM45.1765 40.7059H2.82353V20.9412H12.0424C11.5624 22.2682 11.2941 23.6941 11.2941 25.1765C11.2941 32.1788 16.9976 37.8824 24 37.8824C31.0024 37.8824 36.7059 32.1788 36.7059 25.1765C36.7059 23.6941 36.4376 22.2682 35.9576 20.9412H45.1765V40.7059ZM14.1176 25.1765C14.1176 19.7271 18.5506 15.2941 24 15.2941C29.4494 15.2941 33.8824 19.7271 33.8824 25.1765C33.8824 30.6259 29.4494 35.0588 24 35.0588C18.5506 35.0588 14.1176 30.6259 14.1176 25.1765ZM45.1765 18.1176H34.56C32.2729 14.7153 28.4047 12.4706 24 12.4706C19.5953 12.4706 15.7271 14.7153 13.44 18.1176H2.82353V12.4706H4.23529H12.7059C12.9176 12.4706 13.1153 12.4141 13.2988 12.3294C13.3129 12.3294 13.3271 12.3294 13.3412 12.3153L21.5153 8.23529H45.1765V18.1176Z" fill="#243142"/>
  <path d="M24.0002 32.2353C27.8967 32.2353 31.0591 29.073 31.0591 25.1765C31.0591 21.28 27.8967 18.1177 24.0002 18.1177C20.1038 18.1177 16.9414 21.28 16.9414 25.1765C16.9414 29.073 20.1038 32.2353 24.0002 32.2353ZM24.0002 20.9412C26.3296 20.9412 28.2355 22.8471 28.2355 25.1765C28.2355 27.5059 26.3296 29.4118 24.0002 29.4118C21.6708 29.4118 19.7649 27.5059 19.7649 25.1765C19.7649 22.8471 21.6708 20.9412 24.0002 20.9412Z" fill="#243142"/>
  <path d="M35.2946 14.5882H40.9416C41.7181 14.5882 42.3534 13.9529 42.3534 13.1764C42.3534 12.3999 41.7181 11.7646 40.9416 11.7646H35.2946C34.5181 11.7646 33.8828 12.3999 33.8828 13.1764C33.8828 13.9529 34.5181 14.5882 35.2946 14.5882Z" fill="#243142"/>
</svg>
