<svg width="48" height="48" viewBox="0 0 48 48" fill="none" xmlns="http://www.w3.org/2000/svg">
<g clip-path="url(#clip0_208_14690)">
<path d="M36.3725 29.8834L27.9019 36.2364H44.8431V10.8246H36.3725V29.8834Z" fill="white"/>
<path d="M33.5492 10.8246H2.49039V36.2364H23.201L33.5492 28.4717V10.8246ZM20.8433 20.8623H20.1657V27.8223L18.7539 29.234H15.1963V30.5893H15.8739V33.4129H11.6951V30.5893H12.3727V29.234H8.81509L7.40333 27.8223V20.8623H6.72568V18.0387H10.9045V20.8623H10.2269V26.4105H12.3727V17.2058H11.6951V14.3823H15.8739V17.2058H15.1963V26.4105H17.3422V20.8623H16.6645V18.0387H20.8433V20.8623Z" fill="white"/>
<path d="M46.255 8.00098H1.07851C0.302042 8.00098 -0.333252 8.63627 -0.333252 9.41274V37.648C-0.333252 38.4245 0.302042 39.0598 1.07851 39.0598H46.255C47.0315 39.0598 47.6667 38.4245 47.6667 37.648V9.41274C47.6667 8.63627 47.0315 8.00098 46.255 8.00098ZM2.49028 36.2363V10.8245H33.5491V28.4716L23.2009 36.2363H2.49028ZM44.8432 36.2363H27.902L36.3726 29.8833V10.8245H44.8432V36.2363Z" fill="#243142"/>
<path d="M16.6644 20.8621H17.342V26.4104H15.1961V17.2057H15.8738V14.3821H11.695V17.2057H12.3726V26.4104H10.2267V20.8621H10.9044V18.0386H6.72554V20.8621H7.40319V27.8221L8.81495 29.2339H12.3726V30.5892H11.695V33.4127H15.8738V30.5892H15.1961V29.2339H18.7538L20.1655 27.8221V20.8621H20.8432V18.0386H16.6644V20.8621Z" fill="#243142"/>
</g>
<defs>
<clipPath id="clip0_208_14690">
<rect width="48" height="48" fill="white"/>
</clipPath>
</defs>
</svg>
