<svg width="48" height="48" viewBox="0 0 48 48" fill="none" xmlns="http://www.w3.org/2000/svg" aria-hidden="true">
  <title data-svg="true">Faculty experts (Building sign)</title>
  <g clip-path="url(#clip0_208_14762)">
    <rect width="48" height="48" fill="white"/>
    <path d="M47.667 39.1115V47.2291C47.667 47.4268 47.5117 47.5821 47.3141 47.5821H45.1964C44.9988 47.5821 44.8435 47.4268 44.8435 47.2291V40.5232H2.49052V47.2291C2.49052 47.4268 2.33523 47.5821 2.13758 47.5821H0.0199334C-0.177714 47.5821 -0.333008 47.4268 -0.333008 47.2291V39.1115V9.46441V5.58206C-0.333008 5.38441 -0.177714 5.22912 0.0199334 5.22912H2.13758C2.33523 5.22912 2.49052 5.38441 2.49052 5.58206V8.05265H9.21052L23.0317 1.14912C23.3988 0.965588 23.8223 0.95147 24.2035 1.10676L40.8905 8.05265H44.8435V5.58206C44.8435 5.38441 44.9988 5.22912 45.1964 5.22912H47.3141C47.5117 5.22912 47.667 5.38441 47.667 5.58206V9.46441V39.1115Z" fill="#E2E7E9"/>
    <path d="M40.0714 10.7632L23.7232 3.9585L10.1844 10.735C9.9867 10.8197 9.77494 10.8761 9.54906 10.8761H2.49023V37.6997H44.8432V10.8761H40.6079C40.4243 10.8761 40.2408 10.8338 40.0714 10.7632ZM16.6079 13.1208H20.7867V15.9444H20.1091V21.4926H22.2549V12.2879H21.5773V9.46438H25.7561V12.2879H25.0785V21.4926H27.2244V15.9444H26.5467V13.1208H30.7255V15.9444H30.0479V22.9044L28.6361 24.3161H25.0785V25.6714H25.7561V28.495H21.5773V25.6714H22.2549V24.3161H18.6973L17.2855 22.9044V15.9444H16.6079V13.1208ZM34.9608 33.1114C34.9608 33.3091 34.8055 33.4644 34.6079 33.4644H12.7255C12.5279 33.4644 12.3726 33.3091 12.3726 33.1114V30.9938C12.3726 30.7961 12.5279 30.6408 12.7255 30.6408H34.6079C34.8055 30.6408 34.9608 30.7961 34.9608 30.9938V33.1114Z" fill="white"/>
    <path d="M34.6083 30.6409H12.726C12.5283 30.6409 12.373 30.7962 12.373 30.9938V33.1115C12.373 33.3091 12.5283 33.4644 12.726 33.4644H34.6083C34.806 33.4644 34.9613 33.3091 34.9613 33.1115V30.9938C34.9613 30.7962 34.806 30.6409 34.6083 30.6409Z" fill="#243142"/>
    <path d="M17.286 22.9044L18.6978 24.3161H22.2555V25.6714H21.5778V28.4949H25.7566V25.6714H25.079V24.3161H28.6366L30.0484 22.9044V15.9444H30.726V13.1208H26.5472V15.9444H27.2249V21.4926H25.079V12.2879H25.7566V9.46436H21.5778V12.2879H22.2555V21.4926H20.1096V15.9444H20.7872V13.1208H16.6084V15.9444H17.286V22.9044Z" fill="#243142"/>
    <path d="M47.3141 5.22912H45.1964C44.9988 5.22912 44.8435 5.38441 44.8435 5.58206V8.05265H40.8905L24.2035 1.10676C23.8223 0.95147 23.3988 0.965588 23.0317 1.14912L9.21052 8.05265H2.49052V5.58206C2.49052 5.38441 2.33523 5.22912 2.13758 5.22912H0.0199334C-0.177714 5.22912 -0.333008 5.38441 -0.333008 5.58206V9.46441V39.1115V47.2291C-0.333008 47.4268 -0.177714 47.5821 0.0199334 47.5821H2.13758C2.33523 47.5821 2.49052 47.4268 2.49052 47.2291V40.5232H44.8435V47.2291C44.8435 47.4268 44.9988 47.5821 45.1964 47.5821H47.3141C47.5117 47.5821 47.667 47.4268 47.667 47.2291V39.1115V9.46441V5.58206C47.667 5.38441 47.5117 5.22912 47.3141 5.22912ZM44.8435 37.6997H2.49052V10.8762H9.54935C9.77523 10.8762 9.98699 10.8197 10.1846 10.7209L23.7235 3.94441L40.0717 10.7491C40.2411 10.8338 40.4246 10.8762 40.6082 10.8762H44.8435V37.6997Z" fill="#243142"/>
  </g>
  <defs>
    <clipPath id="clip0_208_14762">
      <rect width="48" height="48" fill="white"/>
    </clipPath>
  </defs>
</svg>
