<svg width="96" height="96" viewBox="0 0 96 96" fill="none" xmlns="http://www.w3.org/2000/svg">
<path d="M48 96C74.5097 96 96 74.5097 96 48C96 21.4903 74.5097 0 48 0C21.4903 0 0 21.4903 0 48C0 74.5097 21.4903 96 48 96Z" fill="#E2E7E9"/>
<path d="M24 74H55V22H24V74ZM37.44 63.22L38.82 64.6C39.02 64.8 39.02 65.12 38.82 65.3L36.7 67.42C36.5 67.62 36.18 67.62 36 67.42L34.62 66.04C34.42 65.84 34.1 65.84 33.92 66.04L32.54 67.42C32.34 67.62 32.02 67.62 31.84 67.42L29.72 65.3C29.52 65.1 29.52 64.78 29.72 64.6L31.1 63.22C31.3 63.02 31.3 62.7 31.1 62.52L29.72 61.14C29.52 60.94 29.52 60.62 29.72 60.44L31.84 58.32C32.04 58.12 32.36 58.12 32.54 58.32L33.92 59.7C34.12 59.9 34.44 59.9 34.62 59.7L36 58.32C36.2 58.12 36.52 58.12 36.7 58.32L38.82 60.44C39.02 60.64 39.02 60.96 38.82 61.14L37.44 62.52C37.24 62.72 37.24 63.04 37.44 63.22ZM29 29.88C29 29.6 29.22 29.38 29.5 29.38H35.5C35.78 29.38 36 29.6 36 29.88V32.88C36 33.16 35.78 33.38 35.5 33.38H29.5C29.22 33.38 29 33.16 29 32.88V29.88ZM29 36.88C29 36.6 29.22 36.38 29.5 36.38H47.74C48.02 36.38 48.24 36.6 48.24 36.88V39.88C48.24 40.16 48.02 40.38 47.74 40.38H29.5C29.22 40.38 29 40.16 29 39.88V36.88V36.88ZM29 43.88C29 43.6 29.22 43.38 29.5 43.38H47.74C48.02 43.38 48.24 43.6 48.24 43.88V46.88C48.24 47.16 48.02 47.38 47.74 47.38H29.5C29.22 47.38 29 47.16 29 46.88V43.88V43.88Z" fill="white"/>
<path d="M69 46.5H66V67H69V46.5Z" fill="white"/>
<path d="M69 22H66V42.5H69V22Z" fill="white"/>
<path d="M57 18H22C20.9 18 20 18.9 20 20V76C20 77.1 20.9 78 22 78H57C58.1 78 59 77.1 59 76V20C59 18.9 58.1 18 57 18ZM55 74H24V22H55V74Z" fill="#243142"/>
<path d="M29.5 40.38H47.74C48.02 40.38 48.24 40.16 48.24 39.88V36.88C48.24 36.6 48.02 36.38 47.74 36.38H29.5C29.22 36.38 29 36.6 29 36.88V39.88C29 40.16 29.22 40.38 29.5 40.38Z" fill="#243142"/>
<path d="M29.5 47.38H47.74C48.02 47.38 48.24 47.16 48.24 46.88V43.88C48.24 43.6 48.02 43.38 47.74 43.38H29.5C29.22 43.38 29 43.6 29 43.88V46.88C29 47.16 29.22 47.38 29.5 47.38Z" fill="#243142"/>
<path d="M38.8 61.14C39 60.94 39 60.62 38.8 60.44L36.68 58.32C36.48 58.12 36.16 58.12 35.98 58.32L34.6 59.7C34.4 59.9 34.08 59.9 33.9 59.7L32.52 58.32C32.32 58.12 32 58.12 31.82 58.32L29.7 60.44C29.5 60.64 29.5 60.96 29.7 61.14L31.08 62.52C31.28 62.72 31.28 63.04 31.08 63.22L29.7 64.6C29.5 64.8 29.5 65.12 29.7 65.3L31.82 67.42C32.02 67.62 32.34 67.62 32.52 67.42L33.9 66.04C34.1 65.84 34.42 65.84 34.6 66.04L35.98 67.42C36.18 67.62 36.5 67.62 36.68 67.42L38.8 65.3C39 65.1 39 64.78 38.8 64.6L37.42 63.22C37.22 63.02 37.22 62.7 37.42 62.52L38.8 61.14Z" fill="#243142"/>
<path d="M78 22.38C76.9 22.38 76 23.28 76 24.38V27.62H73V20.48H71V18H64V20.48H62V69C62 70.1 62.9 71 64 71H71C72.1 71 73 70.1 73 69V31.62H76V43.62C76 44.72 76.9 45.62 78 45.62C79.1 45.62 80 44.72 80 43.62V24.38C80 23.26 79.1 22.38 78 22.38ZM69 67H66V46.5H69V67ZM69 42.5H66V22H69V42.5Z" fill="#243142"/>
<path d="M29.5 33.38H35.5C35.78 33.38 36 33.16 36 32.88V29.88C36 29.6 35.78 29.38 35.5 29.38H29.5C29.22 29.38 29 29.6 29 29.88V32.88C29 33.16 29.22 33.38 29.5 33.38Z" fill="#243142"/>
</svg>
