<svg width="48" height="48" viewBox="0 0 48 48" fill="none" xmlns="http://www.w3.org/2000/svg" aria-hidden="true">
  <title data-svg="true">Global (globe)</title>
  <g clip-path="url(#clip0_208_14706)">
    <path d="M14.4797 22.5892H22.922V3.07861C18.4185 4.53273 14.8044 12.7492 14.4797 22.5892Z" fill="white"/>
    <path d="M22.922 44.9234V25.4128H14.4797C14.8044 35.2528 18.4185 43.4693 22.922 44.9234Z" fill="white"/>
    <path d="M25.7449 3.07861V22.5892H34.1873C33.8625 12.7492 30.2484 4.53273 25.7449 3.07861Z" fill="white"/>
    <path d="M3.22732 25.4128C3.79203 33.9399 9.42497 41.0975 17.1332 43.8928C13.9708 39.8551 11.8956 33.1775 11.6556 25.4128H3.22732V25.4128Z" fill="white"/>
    <path d="M31.5334 4.10898C34.6957 8.14662 36.771 14.8243 37.011 22.589H45.4534C44.8745 14.0619 39.2416 6.90427 31.5334 4.10898Z" fill="white"/>
    <path d="M17.1332 4.10898C9.42497 6.90427 3.79203 14.0619 3.22732 22.589H11.6697C11.8956 14.8243 13.985 8.14662 17.1332 4.10898Z" fill="white"/>
    <path d="M31.5334 43.8928C39.2417 41.0975 44.8746 33.9399 45.4393 25.4128H36.997C36.7711 33.1775 34.6817 39.8551 31.5334 43.8928Z" fill="white"/>
    <path d="M25.7449 25.4128V44.9234C30.2484 43.4693 33.8625 35.2528 34.1873 25.4128H25.7449Z" fill="white"/>
    <path d="M24.3334 0.000976562C11.1051 0.000976562 0.333374 10.7727 0.333374 24.001C0.333374 37.2292 11.1051 48.001 24.3334 48.001C37.5616 48.001 48.3334 37.2292 48.3334 24.001C48.3334 10.7727 37.5616 0.000976562 24.3334 0.000976562ZM17.1334 4.10921C13.971 8.14686 11.8957 14.8245 11.6557 22.5892H3.22749C3.7922 14.0622 9.42514 6.90451 17.1334 4.10921ZM3.22749 25.4127H11.6698C11.8957 33.1774 13.9851 39.8551 17.1475 43.8927C9.42514 41.0974 3.7922 33.9398 3.22749 25.4127ZM22.9216 44.9233C18.4181 43.4692 14.804 35.2527 14.4793 25.4127H22.9216V44.9233ZM22.9216 22.5892H14.4793C14.804 12.7492 18.4181 4.53274 22.9216 3.07862V22.5892ZM25.7451 3.07862C30.2487 4.53274 33.8628 12.7492 34.1875 22.5892H25.7451V3.07862ZM25.7451 44.9233V25.4127H34.1875C33.8628 35.2527 30.2487 43.4692 25.7451 44.9233ZM31.5334 43.8927C34.6957 39.8551 36.771 33.1774 37.011 25.4127H45.4534C44.8746 33.9398 39.2416 41.0833 31.5334 43.8927ZM36.9969 22.5892C36.771 14.8245 34.6816 8.14686 31.5193 4.10921C39.2275 6.90451 44.8604 14.0622 45.4251 22.5892H36.9969Z" fill="#243142"/>
  </g>
  <defs>
    <clipPath id="clip0_208_14706">
      <rect width="48" height="48" fill="white"/>
    </clipPath>
  </defs>
</svg>
