<svg width="48" height="48" viewBox="0 0 48 48" fill="none" xmlns="http://www.w3.org/2000/svg">
<rect width="48" height="48" fill="white"/>
<path d="M8.45735 18.1412C10.0167 18.1412 11.2809 16.877 11.2809 15.3176C11.2809 13.7583 10.0167 12.4941 8.45735 12.4941C6.89796 12.4941 5.63382 13.7583 5.63382 15.3176C5.63382 16.877 6.89796 18.1412 8.45735 18.1412Z" fill="white"/>
<path d="M2.81055 30.847V36.4941H8.45761V31.4259C8.45761 29.6894 8.89525 28.0517 9.64349 26.6117H7.04584C4.71643 26.6117 2.81055 28.5176 2.81055 30.847Z" fill="white"/>
<path d="M23.9869 15.3176C27.1057 15.3176 29.634 12.7893 29.634 9.67054C29.634 6.55176 27.1057 4.02348 23.9869 4.02348C20.8681 4.02348 18.3398 6.55176 18.3398 9.67054C18.3398 12.7893 20.8681 15.3176 23.9869 15.3176Z" fill="white"/>
<path d="M39.5159 18.1411C41.0753 18.1411 42.3394 16.877 42.3394 15.3176C42.3394 13.7582 41.0753 12.4941 39.5159 12.4941C37.9565 12.4941 36.6924 13.7582 36.6924 15.3176C36.6924 16.877 37.9565 18.1411 39.5159 18.1411Z" fill="white"/>
<path d="M40.9267 26.6117H38.3291C39.0773 28.0517 39.515 29.6894 39.515 31.4259V36.4941H45.162V30.847C45.162 28.5176 43.2562 26.6117 40.9267 26.6117Z" fill="white"/>
<path d="M29.0539 23.7883H18.9316C14.7104 23.7883 11.2939 27.2188 11.2939 31.4259V43.553H36.7057V31.4259C36.7057 27.2047 33.2751 23.7883 29.0681 23.7883H29.0539ZM31.0445 36.353C31.0445 36.4518 31.0022 36.5365 30.9457 36.6071L29.7457 37.8071C29.7457 37.8071 29.5904 37.9059 29.4916 37.9059H25.7504C25.5528 37.9059 25.3975 38.0612 25.3975 38.2588V40.3765C25.3975 40.5741 25.2422 40.7294 25.0445 40.7294H22.9269C22.7292 40.7294 22.5739 40.5741 22.5739 40.3765V38.2588C22.5739 38.0612 22.4187 37.9059 22.221 37.9059H18.4798C18.381 37.9059 18.2963 37.8635 18.2257 37.8071L17.0257 36.6071C17.0257 36.6071 16.9269 36.4518 16.9269 36.353V29.7883C16.9269 29.5906 17.0822 29.4353 17.2798 29.4353H19.3975C19.5951 29.4353 19.7504 29.5906 19.7504 29.7883V34.7294C19.7504 34.9271 19.9057 35.0824 20.1034 35.0824H22.221C22.4187 35.0824 22.5739 34.9271 22.5739 34.7294V26.9647C22.5739 26.7671 22.7292 26.6118 22.9269 26.6118H25.0445C25.2422 26.6118 25.3975 26.7671 25.3975 26.9647V34.7294C25.3975 34.9271 25.5528 35.0824 25.7504 35.0824H27.8681C28.0657 35.0824 28.221 34.9271 28.221 34.7294V29.7883C28.221 29.5906 28.3763 29.4353 28.5739 29.4353H30.6916C30.8892 29.4353 31.0445 29.5906 31.0445 29.7883V36.353Z" fill="white"/>
<path d="M30.6924 29.4353H28.5748C28.3771 29.4353 28.2219 29.5906 28.2219 29.7882V34.7294C28.2219 34.927 28.0666 35.0823 27.8689 35.0823H25.7513C25.5536 35.0823 25.3983 34.927 25.3983 34.7294V26.9647C25.3983 26.767 25.243 26.6117 25.0454 26.6117H22.9277C22.7301 26.6117 22.5748 26.767 22.5748 26.9647V34.7294C22.5748 34.927 22.4195 35.0823 22.2219 35.0823H20.1042C19.9066 35.0823 19.7513 34.927 19.7513 34.7294V29.7882C19.7513 29.5906 19.596 29.4353 19.3983 29.4353H17.2807C17.083 29.4353 16.9277 29.5906 16.9277 29.7882V36.3529C16.9277 36.4517 16.9701 36.5364 17.0266 36.607L18.2266 37.807C18.2266 37.807 18.3819 37.9059 18.4807 37.9059H22.2219C22.4195 37.9059 22.5748 38.0612 22.5748 38.2588V40.3764C22.5748 40.5741 22.7301 40.7294 22.9277 40.7294H25.0454C25.243 40.7294 25.3983 40.5741 25.3983 40.3764V38.2588C25.3983 38.0612 25.5536 37.9059 25.7513 37.9059H29.4924C29.5913 37.9059 29.676 37.8635 29.7466 37.807L30.9466 36.607C30.9466 36.607 31.0454 36.4517 31.0454 36.3529V29.7882C31.0454 29.5906 30.8901 29.4353 30.6924 29.4353Z" fill="#243142"/>
<path d="M23.9872 18.1412C28.6601 18.1412 32.4578 14.3435 32.4578 9.67059C32.4578 4.99764 28.6601 1.2 23.9872 1.2C19.3142 1.2 15.5166 4.99764 15.5166 9.67059C15.5166 14.3435 19.3142 18.1412 23.9872 18.1412ZM23.9872 4.02353C27.1072 4.02353 29.6342 6.55059 29.6342 9.67059C29.6342 12.7906 27.1072 15.3176 23.9872 15.3176C20.8672 15.3176 18.3401 12.7906 18.3401 9.67059C18.3401 6.55059 20.8672 4.02353 23.9872 4.02353Z" fill="#243142"/>
<path d="M39.5162 20.9647C42.6362 20.9647 45.1632 18.4376 45.1632 15.3176C45.1632 12.1976 42.6362 9.67059 39.5162 9.67059C36.3962 9.67059 33.8691 12.1976 33.8691 15.3176C33.8691 18.4376 36.3962 20.9647 39.5162 20.9647ZM39.5162 12.4941C41.0691 12.4941 42.3397 13.7647 42.3397 15.3176C42.3397 16.8706 41.0691 18.1412 39.5162 18.1412C37.9632 18.1412 36.6926 16.8706 36.6926 15.3176C36.6926 13.7647 37.9632 12.4941 39.5162 12.4941Z" fill="#243142"/>
<path d="M40.9271 23.7882H38.1035C37.5247 23.7882 36.9741 23.8729 36.4235 24.0141C34.5318 22.1365 31.92 20.9647 29.0541 20.9647H18.9318C16.0518 20.9647 13.4541 22.1365 11.5624 24.0141C11.0118 23.8729 10.4612 23.7882 9.88235 23.7882H7.05882C3.16235 23.7882 0 26.9506 0 30.8471V37.9059C0 38.6824 0.635294 39.3176 1.41176 39.3176H8.47059V44.9647C8.47059 45.7412 9.10588 46.3765 9.88235 46.3765H38.1176C38.8941 46.3765 39.5294 45.7412 39.5294 44.9647V39.3176H46.5882C47.3647 39.3176 48 38.6824 48 37.9059V30.8471C48 26.9506 44.8376 23.7882 40.9412 23.7882H40.9271ZM8.45647 31.4259V36.4941H2.80941V30.8471C2.80941 28.5176 4.71529 26.6118 7.04471 26.6118H9.64235C8.89412 28.0518 8.45647 29.6894 8.45647 31.4259ZM36.6918 43.5529H11.28V31.4259C11.28 27.2047 14.7106 23.7882 18.9176 23.7882H29.04C33.2612 23.7882 36.6777 27.2188 36.6777 31.4259V43.5529H36.6918ZM45.1624 36.4941H39.5153V31.4259C39.5153 29.6894 39.0776 28.0518 38.3294 26.6118H40.9271C43.2565 26.6118 45.1624 28.5176 45.1624 30.8471V36.4941Z" fill="#243142"/>
<path d="M8.45761 20.9647C11.5776 20.9647 14.1047 18.4376 14.1047 15.3176C14.1047 12.1976 11.5776 9.67058 8.45761 9.67058C5.33761 9.67058 2.81055 12.1976 2.81055 15.3176C2.81055 18.4376 5.33761 20.9647 8.45761 20.9647ZM8.45761 12.4941C10.0105 12.4941 11.2811 13.7647 11.2811 15.3176C11.2811 16.8706 10.0105 18.1412 8.45761 18.1412C6.90466 18.1412 5.63408 16.8706 5.63408 15.3176C5.63408 13.7647 6.90466 12.4941 8.45761 12.4941Z" fill="#243142"/>
</svg>
