<svg width="48" height="48" viewBox="0 0 48 48" fill="none" xmlns="http://www.w3.org/2000/svg" aria-hidden="true">
  <title data-svg="true">Health & Wellness (apple)</title>
  <g clip-path="url(#clip0_208_14697)">
    <path d="M32.5827 14.1848C30.6209 13.9589 28.7015 14.2271 26.9091 14.9751C25.159 15.709 23.2254 15.709 21.4612 14.9751C20.0781 14.3965 18.6385 14.1142 17.1425 14.1142C16.6909 14.1142 16.2534 14.1424 15.7876 14.1848C10.4668 14.7916 6.20455 19.2938 5.85172 24.657C5.66824 27.4797 6.54328 30.2459 8.29335 32.4476C10.1846 34.8046 11.7653 37.6837 13.2754 41.4944C14.1081 43.5267 15.9146 44.9098 17.9046 45.1357C19.3019 45.2909 20.6427 44.9381 21.7717 44.1336C23.1831 43.1174 25.1731 43.1174 26.5844 44.1336C27.7135 44.9381 29.0402 45.2909 30.4515 45.1357C32.4415 44.924 34.2481 43.5267 35.0384 41.5932C36.5768 37.6837 38.1575 34.8187 40.0487 32.4476C41.8129 30.2459 42.6738 27.4938 42.4904 24.657C42.1657 19.2938 37.8894 14.8057 32.5827 14.1848ZM27.5442 22.4694C26.4574 22.921 25.3142 23.1468 24.1851 23.1468C23.0561 23.1468 21.8988 22.921 20.8261 22.4694C20.1063 22.173 19.7676 21.3403 20.064 20.6205C20.3604 19.9007 21.1931 19.562 21.9129 19.8584C23.3807 20.4653 25.0037 20.4653 26.4715 19.8584C27.1913 19.562 28.0099 19.9007 28.3204 20.6205C28.6309 21.3403 28.2639 22.173 27.5442 22.4694Z" fill="white"/>
    <path d="M33.9373 2.95062C29.7314 3.61396 26.4006 6.94474 25.7373 11.1506C29.9431 10.4872 33.2598 7.17056 33.9373 2.95062Z" fill="white"/>
    <path d="M45.3274 24.4738C44.904 17.7699 39.555 12.1386 32.8934 11.3765C32.6253 11.3482 32.343 11.3482 32.0748 11.3341C35.0104 9.0195 36.8875 5.43467 36.8875 1.41233C36.8875 0.636084 36.2524 0.000976562 35.4762 0.000976562C30.607 0.000976562 26.373 2.75311 24.2419 6.78957C23.4797 6.08389 22.4777 5.64638 21.3627 5.64638C20.5865 5.64638 19.9513 6.28148 19.9513 7.05772C19.9513 7.83397 20.5865 8.46907 21.3627 8.46907C22.1389 8.46907 22.774 9.10418 22.774 9.88042V12.4491C22.7035 12.4209 22.6188 12.4067 22.5482 12.3785C20.3324 11.4611 17.8908 11.1083 15.4633 11.3906C8.80168 12.1527 3.46678 17.784 3.02926 24.4879C2.80345 28.0163 3.89019 31.4741 6.09189 34.2121C7.79963 36.3432 9.25332 38.9825 10.6364 42.5249L10.6929 42.6661C11.8784 45.5452 14.5882 47.6058 17.5944 47.9445C17.9049 47.9728 18.2154 48.001 18.5118 48.001C20.2618 48.001 21.9696 47.4647 23.4092 46.4344C23.8467 46.1239 24.4959 46.1239 24.9475 46.4344C26.627 47.634 28.7017 48.1703 30.7623 47.9445C33.7685 47.6199 36.4641 45.5452 37.6356 42.7084L37.7061 42.5391C39.1034 38.9966 40.5429 36.3573 42.2507 34.2121C44.4665 31.46 45.5532 28.0022 45.3274 24.4738ZM33.9378 2.9507C33.2745 7.15652 29.9437 10.4873 25.7379 11.1506C26.4012 6.94482 29.7179 3.62815 33.9378 2.9507ZM40.0631 32.4479C38.1719 34.8049 36.5912 37.684 35.0528 41.5935C34.2483 43.527 32.4559 44.9242 30.4659 45.1359C29.0546 45.2912 27.7279 44.9384 26.5988 44.1339C25.1733 43.1177 23.1975 43.1177 21.7861 44.1339C20.657 44.9384 19.3162 45.2912 17.919 45.1359C15.929 44.9242 14.1225 43.527 13.2898 41.4947C11.7796 37.684 10.1989 34.8049 8.30771 32.4479C6.54353 30.2603 5.6826 27.4941 5.86608 24.6573C6.2048 19.2941 10.4812 14.7919 15.802 14.185C16.2536 14.1286 16.7052 14.1145 17.1569 14.1145C18.6529 14.1145 20.0925 14.4109 21.4756 14.9754C23.2257 15.7093 25.1592 15.7093 26.9234 14.9754C28.7158 14.2274 30.6353 13.9733 32.597 14.185C37.9178 14.7919 42.1801 19.2941 42.5329 24.6573C42.6882 27.48 41.8273 30.2462 40.0631 32.4479Z" fill="#243142"/>
    <path d="M26.4718 19.873C25.004 20.4799 23.3809 20.4799 21.9131 19.873C21.1933 19.5767 20.3747 19.9154 20.0642 20.6352C19.7679 21.355 20.1066 22.1735 20.8264 22.484C21.9131 22.9357 23.0563 23.1615 24.1854 23.1615C25.3145 23.1615 26.4718 22.9357 27.5444 22.484C28.2642 22.1876 28.6029 21.355 28.3065 20.6352C28.0101 19.9154 27.1774 19.5767 26.4718 19.873Z" fill="#243142"/>
  </g>
  <defs>
    <clipPath id="clip0_208_14697">
      <rect width="48" height="48" fill="white"/>
    </clipPath>
  </defs>
</svg>
