<svg width="48" height="48" viewBox="0 0 48 48" fill="none" xmlns="http://www.w3.org/2000/svg">
<g clip-path="url(#clip0_208_14731)">
<path d="M29.5002 25.4133H18.206C12.7566 25.4133 8.32364 29.8463 8.32364 35.2957V45.1781H39.3826V35.2957C39.3826 29.8463 34.9496 25.4133 29.5002 25.4133ZM30.912 37.9781C30.912 38.0769 30.8696 38.1616 30.8132 38.2322L29.6131 39.4322C29.6131 39.4322 29.4579 39.531 29.359 39.531H25.6178C25.4202 39.531 25.2649 39.6863 25.2649 39.884V42.0016C25.2649 42.1993 25.1096 42.3546 24.912 42.3546H22.7943C22.5966 42.3546 22.4414 42.1993 22.4414 42.0016V39.884C22.4414 39.6863 22.2861 39.531 22.0884 39.531H18.3472C18.2484 39.531 18.1637 39.4887 18.0931 39.4322L16.8931 38.2322C16.8931 38.2322 16.7943 38.0769 16.7943 37.9781V31.4133C16.7943 31.2157 16.9496 31.0604 17.1472 31.0604H19.2649C19.4625 31.0604 19.6178 31.2157 19.6178 31.4133V36.3545C19.6178 36.5522 19.7731 36.7075 19.9708 36.7075H22.0884C22.2861 36.7075 22.4414 36.5522 22.4414 36.3545V28.5898C22.4414 28.3922 22.5966 28.2369 22.7943 28.2369H24.912C25.1096 28.2369 25.2649 28.3922 25.2649 28.5898V36.3545C25.2649 36.5522 25.4202 36.7075 25.6178 36.7075H27.7355C27.9331 36.7075 28.0884 36.5522 28.0884 36.3545V31.4275C28.0884 31.2298 28.2437 31.0745 28.4414 31.0745H30.559C30.7567 31.0745 30.912 31.2298 30.912 31.4275V37.9781Z" fill="white"/>
<path d="M23.8528 16.9423C27.7513 16.9423 30.9116 13.782 30.9116 9.88346C30.9116 5.98496 27.7513 2.8246 23.8528 2.8246C19.9543 2.8246 16.7939 5.98496 16.7939 9.88346C16.7939 13.782 19.9543 16.9423 23.8528 16.9423Z" fill="white"/>
<path d="M30.5587 31.0736H28.4411C28.2434 31.0736 28.0881 31.2289 28.0881 31.4265V36.3536C28.0881 36.5512 27.9328 36.7065 27.7352 36.7065H25.6175C25.4199 36.7065 25.2646 36.5512 25.2646 36.3536V28.5889C25.2646 28.3912 25.1093 28.2359 24.9117 28.2359H22.794C22.5964 28.2359 22.4411 28.3912 22.4411 28.5889V36.3536C22.4411 36.5512 22.2858 36.7065 22.0881 36.7065H19.9705C19.7728 36.7065 19.6175 36.5512 19.6175 36.3536V31.4124C19.6175 31.2148 19.4622 31.0595 19.2646 31.0595H17.1469C16.9493 31.0595 16.794 31.2148 16.794 31.4124V37.9771C16.794 38.076 16.8363 38.1607 16.8928 38.2313L18.0928 39.4313C18.0928 39.4313 18.2481 39.5301 18.3469 39.5301H22.0881C22.2858 39.5301 22.4411 39.6854 22.4411 39.883V42.0007C22.4411 42.1983 22.5964 42.3536 22.794 42.3536H24.9117C25.1093 42.3536 25.2646 42.1983 25.2646 42.0007V39.883C25.2646 39.6854 25.4199 39.5301 25.6175 39.5301H29.3587C29.4576 39.5301 29.5423 39.4877 29.6129 39.4313L30.8129 38.2313C30.8129 38.2313 30.9117 38.076 30.9117 37.9771V31.4265C30.9117 31.2289 30.7564 31.0736 30.5587 31.0736V31.0736Z" fill="#243142"/>
<path d="M23.8527 19.7658C29.3021 19.7658 33.7351 15.3328 33.7351 9.88337C33.7351 4.43394 29.3021 0.000976562 23.8527 0.000976562C18.4032 0.000976562 13.9703 4.43394 13.9703 9.88337C13.9703 15.3328 18.4032 19.7658 23.8527 19.7658ZM23.8527 2.82452C27.7492 2.82452 30.9115 5.98689 30.9115 9.88337C30.9115 13.7799 27.7492 16.9422 23.8527 16.9422C19.9562 16.9422 16.7938 13.7799 16.7938 9.88337C16.7938 5.98689 19.9562 2.82452 23.8527 2.82452Z" fill="#243142"/>
<path d="M29.5001 22.5891H18.2059C11.2036 22.5891 5.5 28.2927 5.5 35.295V46.5892C5.5 47.3657 6.1353 48.001 6.91177 48.001H40.7943C41.5708 48.001 42.206 47.3657 42.206 46.5892V35.295C42.206 28.2927 36.5025 22.5891 29.5001 22.5891ZM39.3825 45.1774H8.32354V35.295C8.32354 29.8456 12.7565 25.4126 18.2059 25.4126H29.5001C34.9495 25.4126 39.3825 29.8456 39.3825 35.295V45.1774Z" fill="#243142"/>
</g>
<defs>
<clipPath id="clip0_208_14731">
<rect width="48" height="48" fill="white"/>
</clipPath>
</defs>
</svg>
