<svg width="48" height="48" viewBox="0 0 48 48" fill="none" xmlns="http://www.w3.org/2000/svg">
<g clip-path="url(#clip0_208_14591)">
<path d="M36.4071 17.8002C33.8236 17.1084 31.1553 17.1508 28.6282 17.9273C28.6564 19.7203 28.2188 21.5132 27.3293 23.1227L22.8399 31.2969C22.6563 31.5934 22.4446 31.8757 22.2046 32.1299C22.1622 33.5134 22.4587 34.8687 23.1363 36.097L27.6258 44.2712C27.9223 44.7371 28.4447 45.1183 29.0376 45.2877C29.6447 45.443 30.28 45.3724 30.8447 45.076L38.7507 40.29C40.459 39.2594 41.6872 37.6217 42.2096 35.6876L45.1743 24.6474C43.3108 21.2732 40.1907 18.8167 36.4071 17.8002ZM29.6729 25.325C30.9435 25.6639 31.7482 26.8921 31.5788 28.1627C31.5506 28.3463 31.3529 28.4733 31.1694 28.4169L26.8211 27.2592C26.6376 27.2168 26.5246 27.0051 26.5952 26.8357C27.0893 25.6498 28.4023 24.9862 29.6729 25.325ZM35.5601 39.3723C35.5036 39.3723 35.4612 39.3864 35.4048 39.3864C34.6989 39.3864 34.0777 38.85 34.0071 38.13C33.9789 37.89 33.9224 37.6358 33.8377 37.3958C33.4847 36.4358 32.68 35.6876 31.6918 35.4334C30.7035 35.1652 29.6306 35.4052 28.8541 36.0688C28.6564 36.224 28.487 36.4217 28.3458 36.6193C27.8799 37.2405 27.0046 37.3817 26.3693 36.9158C25.734 36.4499 25.607 35.5746 26.0728 34.9393C26.3552 34.5581 26.6799 34.2052 27.047 33.9087C28.5435 32.6522 30.5623 32.2005 32.44 32.7087C34.3177 33.2169 35.8424 34.6146 36.506 36.4499C36.6754 36.9158 36.7742 37.3817 36.8307 37.8335C36.9013 38.5817 36.3365 39.2876 35.5601 39.3723ZM40.3884 30.5204C40.3601 30.704 40.1625 30.831 39.979 30.7745L35.6307 29.6028C35.4471 29.5604 35.3342 29.3486 35.4048 29.1792C35.8989 27.9933 37.2118 27.3298 38.4825 27.6686C39.7531 28.0216 40.5578 29.2498 40.3884 30.5204Z" fill="white"/>
<path d="M25.5505 16.0499L22.5858 5.00973C19.2963 3.03323 15.3715 2.48263 11.588 3.485C7.80437 4.50149 4.68432 6.94388 2.80664 10.3745L5.78551 21.3441C6.30787 23.2783 7.52201 24.9018 9.24439 25.9465L17.221 30.7748C17.7151 31.029 18.3504 31.0996 18.9575 30.9443C19.5646 30.789 20.0728 30.3937 20.4116 29.8572L24.8588 21.7676C25.8188 20.0029 26.0729 17.9841 25.5505 16.0499ZM18.3222 10.9957C19.5928 10.6569 20.9058 11.3204 21.3999 12.5063C21.4705 12.6757 21.3575 12.8875 21.174 12.9299L16.8257 14.1016C16.6422 14.144 16.4445 14.0311 16.4163 13.8475C16.2469 12.5769 17.0516 11.3487 18.3222 10.9957ZM8.01614 16.4593C7.8326 16.5017 7.63495 16.3887 7.60672 16.2052C7.4373 14.9346 8.24202 13.7063 9.51263 13.3675C10.7832 13.0287 12.0962 13.6922 12.5903 14.8781C12.6609 15.0475 12.548 15.2593 12.3644 15.3017L8.01614 16.4593ZM21.1316 20.1723C20.4681 22.0076 18.9434 23.4053 17.0657 23.9136C16.5574 24.0547 16.0351 24.1112 15.5268 24.1112C14.1292 24.1112 12.7597 23.6312 11.6727 22.7135C11.3056 22.4029 10.9809 22.05 10.6985 21.6688C10.2326 21.0335 10.3738 20.1582 11.0091 19.6923C11.6444 19.2264 12.5197 19.3676 12.9856 20.0029C13.1268 20.2006 13.3103 20.3841 13.4939 20.5535C14.2845 21.217 15.3433 21.4571 16.3316 21.1888C17.3198 20.9206 18.1245 20.1864 18.4775 19.2123C18.5622 18.9723 18.6187 18.7323 18.6469 18.4782C18.7316 17.7017 19.4234 17.137 20.1999 17.2217C20.9763 17.3064 21.5411 17.9982 21.4564 18.7747C21.3999 19.2547 21.2869 19.7206 21.1316 20.1723Z" fill="white"/>
<path d="M12.5904 14.8638C12.0963 13.6779 10.7833 13.0144 9.51274 13.3532C8.24213 13.692 7.43741 14.9203 7.60682 16.1909C7.63506 16.3744 7.83271 16.5015 8.01624 16.445L12.3645 15.2732C12.5481 15.245 12.661 15.0474 12.5904 14.8638Z" fill="#243142"/>
<path d="M16.8258 14.1013L21.1741 12.9295C21.3577 12.8872 21.4706 12.6754 21.4 12.506C20.9059 11.3201 19.5929 10.6566 18.3223 10.9954C17.0517 11.3342 16.247 12.5625 16.4164 13.8331C16.4305 14.0307 16.6423 14.1437 16.8258 14.1013Z" fill="#243142"/>
<path d="M20.1998 17.2216C19.4233 17.1369 18.7316 17.7016 18.6469 18.4781C18.6186 18.7181 18.5621 18.9722 18.4774 19.2122C18.1245 20.1863 17.3198 20.9205 16.3315 21.1887C15.3433 21.457 14.2703 21.217 13.4938 20.5534C13.2962 20.384 13.1268 20.2005 12.9856 20.0028C12.5197 19.3675 11.6444 19.2404 11.0091 19.6922C10.3738 20.1581 10.2467 21.0334 10.6985 21.6687C10.9808 22.0499 11.3056 22.4029 11.6726 22.7134C12.7597 23.6311 14.1291 24.1111 15.5268 24.1111C16.035 24.1111 16.5574 24.0405 17.0657 23.9135C18.9433 23.4052 20.4681 22.0076 21.1316 20.1722C21.301 19.7205 21.3998 19.2546 21.4563 18.7887C21.5269 17.9981 20.9763 17.3063 20.1998 17.2216Z" fill="#243142"/>
<path d="M37.1412 15.0757C34.1906 14.2851 31.127 14.2992 28.2187 15.1039L25.3105 4.27551C25.1269 3.58374 24.7034 3.01902 24.0963 2.65196C20.0869 0.209566 15.3715 -0.453974 10.8396 0.760163C6.30781 1.9743 2.56658 4.91082 0.307717 9.03323C-0.00287598 9.6403 -0.0875827 10.3462 0.0959496 11.038L3.0607 22.0781C3.7666 24.7182 5.44662 26.9488 7.77607 28.3606L15.8233 33.2313C16.5997 33.6407 17.4468 33.8525 18.308 33.8525C18.7033 33.8525 19.0845 33.796 19.4798 33.7113C19.6492 35.0101 20.0304 36.2807 20.6657 37.4525L25.1975 45.6973C25.9175 46.8409 27.0187 47.6597 28.3176 47.9986C28.7693 48.1115 29.2211 48.168 29.6729 48.168C30.5482 48.168 31.4235 47.9421 32.2423 47.5044L40.2189 42.6761C42.5625 41.2643 44.2284 39.0337 44.9343 36.3937L47.8991 25.3535C48.0826 24.6617 47.9979 23.9558 47.6591 23.3488C45.4143 19.2263 41.6731 16.2898 37.1412 15.0757ZM20.3974 29.8571C20.0586 30.3936 19.5363 30.7748 18.9433 30.9442C18.3362 31.1136 17.7009 31.0289 17.2068 30.7748L9.23021 25.9464C7.52195 24.9158 6.29369 23.2782 5.77133 21.344L2.79246 10.3744C4.67014 6.94379 7.79019 4.48728 11.5738 3.48491C15.3574 2.46843 19.2821 3.03314 22.5716 5.00964L25.5364 16.0498C26.0587 17.984 25.8046 20.0028 24.8446 21.7534L20.3974 29.8571ZM42.2237 35.6737C41.7013 37.6078 40.4731 39.2314 38.7648 40.2761L30.8588 45.062C30.2941 45.3585 29.6588 45.4291 29.0517 45.2738C28.4446 45.1185 27.9364 44.7232 27.6399 44.2573L23.1504 36.0831C22.4728 34.8689 22.1763 33.4995 22.2187 32.116C22.4445 31.8618 22.6563 31.5936 22.854 31.283L27.3434 23.1088C28.2329 21.4993 28.6564 19.7063 28.6423 17.9134C31.1694 17.151 33.8377 17.0945 36.4212 17.7863C40.2048 18.8028 43.3249 21.2452 45.1884 24.6052L42.2237 35.6737Z" fill="#243142"/>
<path d="M38.4825 27.6829C37.2119 27.3441 35.899 28.0076 35.4049 29.1935C35.3343 29.3629 35.4472 29.5747 35.6307 29.617L39.979 30.7888C40.1626 30.8312 40.3602 30.7182 40.3885 30.5347C40.5579 29.25 39.7532 28.0217 38.4825 27.6829Z" fill="#243142"/>
<path d="M26.8206 27.2598L31.1689 28.4316C31.3524 28.4739 31.55 28.361 31.5783 28.1774C31.7477 26.9068 30.943 25.6786 29.6724 25.3397C28.4018 25.0009 27.0888 25.6645 26.5947 26.8504C26.5241 27.0057 26.637 27.2033 26.8206 27.2598Z" fill="#243142"/>
<path d="M32.4254 32.6808C30.5477 32.1725 28.5288 32.6243 27.0324 33.8808C26.6653 34.1914 26.3406 34.5302 26.0582 34.9114C25.5923 35.5467 25.7335 36.422 26.3547 36.8879C26.99 37.3538 27.8653 37.2126 28.3312 36.5914C28.4724 36.3938 28.6559 36.1961 28.8394 36.0408C29.63 35.3773 30.6889 35.1373 31.6771 35.4055C32.6654 35.6737 33.4701 36.4079 33.823 37.3679C33.9078 37.6079 33.9642 37.862 33.9925 38.102C34.063 38.822 34.6842 39.3585 35.3901 39.3585C35.4466 39.3585 35.489 39.3585 35.5454 39.3444C36.3219 39.2597 36.8866 38.5679 36.8019 37.7914C36.7454 37.3255 36.6466 36.8596 36.4772 36.4079C35.8278 34.5867 34.3031 33.189 32.4254 32.6808Z" fill="#243142"/>
</g>
<defs>
<clipPath id="clip0_208_14591">
<rect width="48" height="48" fill="white"/>
</clipPath>
</defs>
</svg>
