<svg width="48" height="48" viewBox="0 0 48 48" fill="none" xmlns="http://www.w3.org/2000/svg">
<rect width="48" height="48" fill="white"/>
<path d="M31.2553 9.88231C31.2553 5.98584 28.093 2.82349 24.1965 2.82349C20.3 2.82349 17.1377 5.98584 17.1377 9.88231V16.9411H31.2553V9.88231ZM19.9612 11.2941C19.1848 11.2941 18.5495 10.6588 18.5495 9.88231C18.5495 9.10584 19.1848 8.47055 19.9612 8.47055C20.7377 8.47055 21.373 9.10584 21.373 9.88231C21.373 10.6588 20.7377 11.2941 19.9612 11.2941ZM24.1965 14.1176C23.42 14.1176 22.7848 13.4823 22.7848 12.7058C22.7848 11.9294 23.42 11.2941 24.1965 11.2941C24.973 11.2941 25.6083 11.9294 25.6083 12.7058C25.6083 13.4823 24.973 14.1176 24.1965 14.1176ZM24.1965 8.47055C23.42 8.47055 22.7848 7.83525 22.7848 7.05878C22.7848 6.28231 23.42 5.64702 24.1965 5.64702C24.973 5.64702 25.6083 6.28231 25.6083 7.05878C25.6083 7.83525 24.973 8.47055 24.1965 8.47055ZM28.4318 11.2941C27.6553 11.2941 27.02 10.6588 27.02 9.88231C27.02 9.10584 27.6553 8.47055 28.4318 8.47055C29.2083 8.47055 29.8436 9.10584 29.8436 9.88231C29.8436 10.6588 29.2083 11.2941 28.4318 11.2941Z" fill="white"/>
<path d="M31.2553 23.9999V19.7646H17.1377V23.9999C17.1377 27.8964 20.3 31.0588 24.1965 31.0588C28.093 31.0588 31.2553 27.8964 31.2553 23.9999Z" fill="white"/>
<path d="M38.314 22.5882C37.5376 22.5882 36.9023 23.2235 36.9023 24C36.9023 30.5224 31.947 35.9153 25.6082 36.6212V33.7694C30.394 33.0776 34.0788 28.9694 34.0788 24V9.88235C34.0788 4.43294 29.6458 0 24.1964 0C18.747 0 14.3141 4.43294 14.3141 9.88235V24C14.3141 28.9694 17.9988 33.0776 22.7846 33.7694V36.6212C16.4458 35.9153 11.4905 30.5224 11.4905 24C11.4905 23.2235 10.8552 22.5882 10.0788 22.5882C9.30229 22.5882 8.66699 23.2235 8.66699 24C8.66699 32.0894 14.8788 38.7388 22.7846 39.4588V45.1765H18.5493C17.7729 45.1765 17.1376 45.8118 17.1376 46.5882C17.1376 47.3647 17.7729 48 18.5493 48H29.8435C30.6199 48 31.2552 47.3647 31.2552 46.5882C31.2552 45.8118 30.6199 45.1765 29.8435 45.1765H25.6082V39.4588C33.514 38.7388 39.7258 32.0894 39.7258 24C39.7258 23.2235 39.0905 22.5882 38.314 22.5882ZM17.1376 9.88235C17.1376 5.98588 20.2999 2.82353 24.1964 2.82353C28.0929 2.82353 31.2552 5.98588 31.2552 9.88235V16.9412H17.1376V9.88235ZM24.1964 31.0588C20.2999 31.0588 17.1376 27.8965 17.1376 24V19.7647H31.2552V24C31.2552 27.8965 28.0929 31.0588 24.1964 31.0588Z" fill="#243142"/>
<path d="M24.1959 8.47062C24.9756 8.47062 25.6077 7.83856 25.6077 7.05886C25.6077 6.27916 24.9756 5.64709 24.1959 5.64709C23.4162 5.64709 22.7842 6.27916 22.7842 7.05886C22.7842 7.83856 23.4162 8.47062 24.1959 8.47062Z" fill="#243142"/>
<path d="M24.1959 14.1176C24.9756 14.1176 25.6077 13.4855 25.6077 12.7058C25.6077 11.9261 24.9756 11.2941 24.1959 11.2941C23.4162 11.2941 22.7842 11.9261 22.7842 12.7058C22.7842 13.4855 23.4162 14.1176 24.1959 14.1176Z" fill="#243142"/>
<path d="M28.4313 11.2941C29.211 11.2941 29.8431 10.662 29.8431 9.88235C29.8431 9.10265 29.211 8.47058 28.4313 8.47058C27.6516 8.47058 27.0195 9.10265 27.0195 9.88235C27.0195 10.662 27.6516 11.2941 28.4313 11.2941Z" fill="#243142"/>
<path d="M19.9616 11.2941C20.7413 11.2941 21.3733 10.662 21.3733 9.88235C21.3733 9.10265 20.7413 8.47058 19.9616 8.47058C19.1819 8.47058 18.5498 9.10265 18.5498 9.88235C18.5498 10.662 19.1819 11.2941 19.9616 11.2941Z" fill="#243142"/>
</svg>
