<svg width="48" height="48" viewBox="0 0 48 48" fill="none" xmlns="http://www.w3.org/2000/svg">
<g clip-path="url(#clip0_208_14724)">
<path d="M25.7325 14.027C26.5121 14.027 27.144 13.3951 27.144 12.6156C27.144 11.836 26.5121 11.2041 25.7325 11.2041C24.953 11.2041 24.3211 11.836 24.3211 12.6156C24.3211 13.3951 24.953 14.027 25.7325 14.027Z" fill="white"/>
<path d="M25.7325 45.1637C26.5121 45.1637 27.144 44.5318 27.144 43.7523C27.144 42.9727 26.5121 42.3408 25.7325 42.3408C24.953 42.3408 24.3211 42.9727 24.3211 43.7523C24.3211 44.5318 24.953 45.1637 25.7325 45.1637Z" fill="white"/>
<path d="M11.1515 17.3018L15.1459 21.3103L21.9491 14.4789C21.6668 13.9143 21.4974 13.2792 21.4974 12.6017C21.4974 10.2587 23.4029 8.35321 25.7318 8.35321C26.4093 8.35321 27.0303 8.52258 27.5949 8.80487L29.1193 7.2805L25.1249 3.27197L11.1515 17.3018Z" fill="white"/>
<path d="M29.8818 11.7407C29.8112 11.4302 29.7124 11.1197 29.5713 10.8374L31.8578 8.53674C32.1966 8.19799 32.3801 7.76044 32.3801 7.28055C32.3801 6.80065 32.1966 6.3631 31.8578 6.02435L26.3673 0.519686C25.6757 -0.171926 24.5606 -0.171926 23.869 0.519686L8.41358 16.0457C7.72197 16.7373 7.72197 17.8523 8.41358 18.5439L9.09108 19.2214C8.56884 20.3788 8.76645 21.7903 9.72624 22.7501C10.6719 23.7099 12.0834 23.9075 13.2408 23.3852L13.9183 24.0627C14.257 24.4015 14.7087 24.585 15.1603 24.585C15.612 24.585 16.0637 24.4156 16.4024 24.0627L23.9819 16.4691C24.5183 16.7232 25.1111 16.8643 25.7462 16.8643C27.3694 16.8643 28.7667 15.9328 29.4866 14.5778C34.7513 16.1727 38.4493 21.0846 38.4493 26.688C38.4493 33.6747 32.7894 39.3488 25.8309 39.3488C21.6389 39.3488 17.7856 37.2457 15.4567 33.8582H18.7031C19.4794 33.8582 20.1145 33.2231 20.1145 32.4468C20.1145 31.6705 19.4794 31.0353 18.7031 31.0353H7.41145C6.63515 31.0353 6 31.6705 6 32.4468C6 33.2231 6.63515 33.8582 7.41145 33.8582H12.1539C14.2147 37.8103 17.8562 40.6332 22.0765 41.7059C21.7377 42.3128 21.526 43.0185 21.526 43.7666C21.526 44.2606 21.6248 44.7405 21.7801 45.1781H20.0863C19.31 45.1781 18.6749 45.8132 18.6749 46.5895C18.6749 47.3658 19.31 48.001 20.0863 48.001H31.3779C32.1542 48.001 32.7894 47.3658 32.7894 46.5895C32.7894 45.8132 32.1542 45.1781 31.3779 45.1781H29.7124C29.8677 44.7264 29.9665 44.2606 29.9665 43.7666C29.9665 43.0327 29.7548 42.3411 29.4301 41.7341C36.2051 40.0968 41.2581 33.9852 41.2581 26.688C41.2581 19.6731 36.5297 13.5615 29.8818 11.7407ZM25.7321 14.0273C24.9558 14.0273 24.3207 13.3921 24.3207 12.6158C24.3207 11.8395 24.9558 11.2044 25.7321 11.2044C26.5084 11.2044 27.1436 11.8395 27.1436 12.6158C27.1436 13.3921 26.5084 14.0273 25.7321 14.0273ZM27.5952 8.81903C27.0307 8.53674 26.3955 8.36737 25.7321 8.36737C23.4032 8.36737 21.4978 10.2728 21.4978 12.6158C21.4978 13.2933 21.6671 13.9144 21.9494 14.4931L15.1462 21.3104L11.1518 17.3019L25.1252 3.28613L29.1196 7.29466L27.5952 8.81903ZM25.7321 45.1781C24.9558 45.1781 24.3207 44.5429 24.3207 43.7666C24.3207 42.9903 24.9558 42.3552 25.7321 42.3552C26.5084 42.3552 27.1436 42.9903 27.1436 43.7666C27.1436 44.5429 26.5084 45.1781 25.7321 45.1781Z" fill="#243142"/>
</g>
<defs>
<clipPath id="clip0_208_14724">
<rect width="48" height="48" fill="white"/>
</clipPath>
</defs>
</svg>
