<svg width="48" height="48" viewBox="0 0 48 48" fill="none" xmlns="http://www.w3.org/2000/svg" aria-hidden="true">
  <title data-svg="true">Newsletter subscriptions (newspaper)</title>
<path d="M24 48C37.2548 48 48 37.2548 48 24C48 10.7452 37.2548 0 24 0C10.7452 0 0 10.7452 0 24C0 37.2548 10.7452 48 24 48Z" fill="#E2E7E9"/>
<path d="M17.62 34.94C17.62 35.97 17.26 36.91 16.68 37.68H34.94C36.45 37.68 37.68 36.45 37.68 34.94V10.32H17.62V34.94ZM22.63 15.66H25.6V17.48H25.03V21.6H26.74V14.88H26.17V13.06H29.14V14.88H28.57V21.6H30.28V17.48H29.71V15.66H32.68V17.48H32.11V22.51L31.2 23.42H28.58V24.57H29.15V26.39H26.18V24.57H26.75V23.42H24.13L23.22 22.51V17.48H22.65V15.66H22.63ZM20.35 28.56H34.94V30.38H20.35V28.56ZM20.35 32.21H34.94V34.03H20.35V32.21Z" fill="white"/>
<path d="M10.32 34.94C10.32 36.45 11.55 37.68 13.06 37.68C14.57 37.68 15.8 36.45 15.8 34.94V13.97H10.33V34.94H10.32Z" fill="white"/>
<path d="M38.59 8.5H16.71C16.21 8.5 15.8 8.91 15.8 9.41V12.15H9.41C8.91 12.15 8.5 12.56 8.5 13.06V34.94C8.5 37.45 10.55 39.5 13.06 39.5H34.94C37.45 39.5 39.5 37.45 39.5 34.94V9.41C39.5 8.91 39.09 8.5 38.59 8.5ZM15.79 34.94C15.79 36.45 14.56 37.68 13.05 37.68C11.54 37.68 10.31 36.45 10.31 34.94V13.97H15.78V34.94H15.79ZM37.68 34.94C37.68 36.45 36.45 37.68 34.94 37.68H16.68C17.26 36.92 17.62 35.97 17.62 34.94V10.32H37.68V34.94Z" fill="#243142"/>
<path d="M34.94 28.56H20.35V30.38H34.94V28.56Z" fill="#243142"/>
<path d="M34.94 32.21H20.35V34.03H34.94V32.21Z" fill="#243142"/>
<path d="M23.21 22.51L24.12 23.43H26.74V24.57H26.16V26.4H29.13V24.57H28.56V23.43H31.18L32.09 22.51V17.48H32.66V15.66H29.69V17.48H30.26V21.6H28.56V14.88H29.13V13.06H26.16V14.88H26.74V21.6H25.03V17.48H25.6V15.66H22.63V17.48H23.21V22.51Z" fill="#243142"/>
</svg>
