<svg width="48" height="48" viewBox="0 0 48 48" fill="none" xmlns="http://www.w3.org/2000/svg" aria-hidden="true">
  <title data-svg="true">Newsletter subscriptions (newspaper)</title>
  <g clip-path="url(#clip0_216_10932)">
    <rect width="48" height="48" fill="white"/>
    <path d="M14.4503 40.9412C14.4503 42.5365 13.8997 43.9906 12.9962 45.1765H41.2738C43.6032 45.1765 45.5091 43.2706 45.5091 40.9412V2.82353H14.4503V40.9412ZM22.215 11.0824H26.8173V13.9059H25.9279V20.2871H28.5679V9.88236H27.6785V7.05883H32.2809V9.88236H31.3914V20.2871H34.0314V13.9059H33.142V11.0824H37.7444V13.9059H36.855V21.6988L35.4432 23.1106H31.3914V24.8894H32.2809V27.7129H27.6785V24.8894H28.5679V23.1106H24.5161L23.1044 21.6988V13.9059H22.215V11.0824ZM18.6856 31.0588H41.2738V33.8824H18.6856V31.0588ZM18.6856 36.7059H41.2738V39.5294H18.6856V36.7059Z" fill="white"/>
    <path d="M3.15625 40.9412C3.15625 43.2706 5.06213 45.1765 7.39154 45.1765C9.72096 45.1765 11.6268 43.2706 11.6268 40.9412V8.47058H3.15625V40.9412Z" fill="white"/>
    <path d="M46.9212 0H13.0389C12.2624 0 11.6271 0.635294 11.6271 1.41176V5.64706H1.74477C0.968302 5.64706 0.333008 6.28235 0.333008 7.05882V40.9412C0.333008 44.8376 3.49536 48 7.39183 48H41.2742C45.1707 48 48.333 44.8376 48.333 40.9412V1.41176C48.333 0.635294 47.6977 0 46.9212 0ZM11.6271 40.9412C11.6271 43.2706 9.72124 45.1765 7.39183 45.1765C5.06242 45.1765 3.15654 43.2706 3.15654 40.9412V8.47059H11.6271V40.9412ZM45.5095 40.9412C45.5095 43.2706 43.6036 45.1765 41.2742 45.1765H12.9965C13.8859 43.9906 14.4507 42.5365 14.4507 40.9412V2.82353H45.5095V40.9412Z" fill="#243142"/>
    <path d="M41.2738 31.0588H18.6855V33.8824H41.2738V31.0588Z" fill="#243142"/>
    <path d="M41.2738 36.7059H18.6855V39.5295H41.2738V36.7059Z" fill="#243142"/>
    <path d="M23.1052 21.6988L24.517 23.1106H28.5688V24.8894H27.6794V27.713H32.2817V24.8894H31.3923V23.1106H35.4441L36.8558 21.6988V13.9059H37.7452V11.0824H33.1429V13.9059H34.0323V20.2871H31.3923V9.88237H32.2817V7.05884H27.6794V9.88237H28.5688V20.2871H25.9288V13.9059H26.8182V11.0824H22.2158V13.9059H23.1052V21.6988Z" fill="#243142"/>
  </g>
<defs>
  <clipPath id="clip0_216_10932">
    <rect width="48" height="48" fill="white"/>
  </clipPath>
</defs>
</svg>
