<svg width="96" height="96" viewBox="0 0 96 96" fill="none" xmlns="http://www.w3.org/2000/svg">
<path d="M48 96C74.5097 96 96 74.5097 96 48C96 21.4903 74.5097 0 48 0C21.4903 0 0 21.4903 0 48C0 74.5097 21.4903 96 48 96Z" fill="#FFCDC0"/>
<path d="M35.24 69.88C35.24 71.94 34.52 73.82 33.36 75.36H69.88C72.9 75.36 75.36 72.9 75.36 69.88V20.64H35.24V69.88ZM45.26 31.32H51.2V34.96H50.06V43.2H53.48V29.76H52.34V26.12H58.28V29.76H57.14V43.2H60.56V34.96H59.42V31.32H65.36V34.96H64.22V45.02L62.4 46.84H57.16V49.14H58.3V52.78H52.36V49.14H53.5V46.84H48.26L46.44 45.02V34.96H45.3V31.32H45.26ZM40.7 57.12H69.88V60.76H40.7V57.12ZM40.7 64.42H69.88V68.06H40.7V64.42Z" fill="white"/>
<path d="M20.64 69.88C20.64 72.9 23.1 75.36 26.12 75.36C29.14 75.36 31.6 72.9 31.6 69.88V27.94H20.66V69.88H20.64Z" fill="white"/>
<path d="M77.18 17H33.42C32.42 17 31.6 17.82 31.6 18.82V24.3H18.82C17.82 24.3 17 25.12 17 26.12V69.88C17 74.9 21.1 79 26.12 79H69.88C74.9 79 79 74.9 79 69.88V18.82C79 17.82 78.18 17 77.18 17ZM31.58 69.88C31.58 72.9 29.12 75.36 26.1 75.36C23.08 75.36 20.62 72.9 20.62 69.88V27.94H31.56V69.88H31.58ZM75.36 69.88C75.36 72.9 72.9 75.36 69.88 75.36H33.36C34.52 73.84 35.24 71.94 35.24 69.88V20.64H75.36V69.88Z" fill="#990000"/>
<path d="M69.88 57.12H40.7V60.76H69.88V57.12Z" fill="#990000"/>
<path d="M69.88 64.42H40.7V68.06H69.88V64.42Z" fill="#990000"/>
<path d="M46.42 45.02L48.24 46.86H53.48V49.14H52.32V52.8H58.26V49.14H57.12V46.86H62.36L64.18 45.02V34.96H65.32V31.32H59.38V34.96H60.52V43.2H57.12V29.76H58.26V26.12H52.32V29.76H53.48V43.2H50.06V34.96H51.2V31.32H45.26V34.96H46.42V45.02Z" fill="#990000"/>
</svg>
