<svg width="49" height="48" viewBox="0 0 49 48" fill="none" xmlns="http://www.w3.org/2000/svg">
  <title data-svg="true">Tip sheets (spiral-bound notebook)</title>
  <rect width="48" height="48" transform="translate(0.666992)" fill="white"/>
  <path d="M30.4122 12.7058V2.82349H10.6475V5.64702H12.0592C12.8357 5.64702 13.471 6.28231 13.471 7.05878C13.471 7.83525 12.8357 8.47054 12.0592 8.47054H10.6475V14.1176H12.0592C12.8357 14.1176 13.471 14.7529 13.471 15.5294C13.471 16.3058 12.8357 16.9411 12.0592 16.9411H10.6475V22.5882H12.0592C12.8357 22.5882 13.471 23.2235 13.471 24C13.471 24.7764 12.8357 25.4117 12.0592 25.4117H10.6475V31.0588H12.0592C12.8357 31.0588 13.471 31.6941 13.471 32.4705C13.471 33.247 12.8357 33.8823 12.0592 33.8823H10.6475V39.5294H12.0592C12.8357 39.5294 13.471 40.1647 13.471 40.9411C13.471 41.7176 12.8357 42.3529 12.0592 42.3529H10.6475V45.1764H41.7063V14.1176H31.8239C31.0475 14.1176 30.4122 13.4823 30.4122 12.7058ZM17.7063 10.2353C17.7063 10.0376 17.8616 9.88231 18.0592 9.88231H25.8239C26.0216 9.88231 26.1769 10.0376 26.1769 10.2353V12.3529C26.1769 12.5505 26.0216 12.7058 25.8239 12.7058H18.0592C17.8616 12.7058 17.7063 12.5505 17.7063 12.3529V10.2353ZM36.0592 37.7647C36.0592 37.9623 35.9039 38.1176 35.7063 38.1176H18.0592C17.8616 38.1176 17.7063 37.9623 17.7063 37.7647V35.647C17.7063 35.4494 17.8616 35.2941 18.0592 35.2941H35.7063C35.9039 35.2941 36.0592 35.4494 36.0592 35.647V37.7647ZM36.0592 29.2941C36.0592 29.4917 35.9039 29.647 35.7063 29.647H18.0592C17.8616 29.647 17.7063 29.4917 17.7063 29.2941V27.1764C17.7063 26.9788 17.8616 26.8235 18.0592 26.8235H35.7063C35.9039 26.8235 36.0592 26.9788 36.0592 27.1764V29.2941ZM36.0592 18.7058V20.8235C36.0592 21.0211 35.9039 21.1764 35.7063 21.1764H18.0592C17.8616 21.1764 17.7063 21.0211 17.7063 20.8235V18.7058C17.7063 18.5082 17.8616 18.3529 18.0592 18.3529H35.7063C35.9039 18.3529 36.0592 18.5082 36.0592 18.7058Z" fill="white"/>
  <path d="M33.2354 3.40259V11.2944H41.1271L33.2354 3.40259Z" fill="white"/>
  <path d="M17.7061 18.7058V20.8235C17.7061 21.0211 17.8613 21.1764 18.059 21.1764H35.7061C35.9037 21.1764 36.059 21.0211 36.059 20.8235V18.7058C36.059 18.5082 35.9037 18.3529 35.7061 18.3529H18.059C17.8613 18.3529 17.7061 18.5082 17.7061 18.7058Z" fill="#243142"/>
  <path d="M35.7061 26.8235H18.059C17.8613 26.8235 17.7061 26.9788 17.7061 27.1764V29.2941C17.7061 29.4917 17.8613 29.647 18.059 29.647H35.7061C35.9037 29.647 36.059 29.4917 36.059 29.2941V27.1764C36.059 26.9788 35.9037 26.8235 35.7061 26.8235Z" fill="#243142"/>
  <path d="M35.7061 35.2941H18.059C17.8613 35.2941 17.7061 35.4494 17.7061 35.647V37.7647C17.7061 37.9623 17.8613 38.1176 18.059 38.1176H35.7061C35.9037 38.1176 36.059 37.9623 36.059 37.7647V35.647C36.059 35.4494 35.9037 35.2941 35.7061 35.2941Z" fill="#243142"/>
  <path d="M18.059 12.7059H25.8237C26.0213 12.7059 26.1766 12.5506 26.1766 12.3529V10.2353C26.1766 10.0376 26.0213 9.88232 25.8237 9.88232H18.059C17.8613 9.88232 17.7061 10.0376 17.7061 10.2353V12.3529C17.7061 12.5506 17.8613 12.7059 18.059 12.7059Z" fill="#243142"/>
  <path d="M44.12 10.2918L34.2376 0.409412C34.1106 0.282353 33.9553 0.169412 33.7859 0.0988238C33.6024 0.0423532 33.4188 0 33.2353 0H31.8235H9.23529C8.45882 0 7.82353 0.635294 7.82353 1.41176V5.64706H6.41176C5.63529 5.64706 5 6.28235 5 7.05882C5 7.83529 5.63529 8.47059 6.41176 8.47059H7.82353V14.1176H6.41176C5.63529 14.1176 5 14.7529 5 15.5294C5 16.3059 5.63529 16.9412 6.41176 16.9412H7.82353V22.5882H6.41176C5.63529 22.5882 5 23.2235 5 24C5 24.7765 5.63529 25.4118 6.41176 25.4118H7.82353V31.0588H6.41176C5.63529 31.0588 5 31.6941 5 32.4706C5 33.2471 5.63529 33.8824 6.41176 33.8824H7.82353V39.5294H6.41176C5.63529 39.5294 5 40.1647 5 40.9412C5 41.7176 5.63529 42.3529 6.41176 42.3529H7.82353V46.5882C7.82353 47.3647 8.45882 48 9.23529 48H43.1176C43.8941 48 44.5294 47.3647 44.5294 46.5882V12.7059V11.2941C44.5294 11.1106 44.4871 10.9271 44.4165 10.7576C44.3459 10.5741 44.2471 10.4188 44.12 10.2918ZM33.2353 3.40235L41.1271 11.2941H33.2353V3.40235ZM41.7059 45.1765H10.6471V42.3529H12.0588C12.8353 42.3529 13.4706 41.7176 13.4706 40.9412C13.4706 40.1647 12.8353 39.5294 12.0588 39.5294H10.6471V33.8824H12.0588C12.8353 33.8824 13.4706 33.2471 13.4706 32.4706C13.4706 31.6941 12.8353 31.0588 12.0588 31.0588H10.6471V25.4118H12.0588C12.8353 25.4118 13.4706 24.7765 13.4706 24C13.4706 23.2235 12.8353 22.5882 12.0588 22.5882H10.6471V16.9412H12.0588C12.8353 16.9412 13.4706 16.3059 13.4706 15.5294C13.4706 14.7529 12.8353 14.1176 12.0588 14.1176H10.6471V8.47059H12.0588C12.8353 8.47059 13.4706 7.83529 13.4706 7.05882C13.4706 6.28235 12.8353 5.64706 12.0588 5.64706H10.6471V2.82353H30.4118V12.7059C30.4118 13.4824 31.0471 14.1176 31.8235 14.1176H41.7059V45.1765Z" fill="#243142"/>
</svg>
