<svg width="48" height="48" viewBox="0 0 48 48" fill="none" xmlns="http://www.w3.org/2000/svg" aria-hidden="true">
  <title data-svg="true">Tip sheets (spiral-bound notebook)</title>
  <path d="M24 48C37.2548 48 48 37.2548 48 24C48 10.7452 37.2548 0 24 0C10.7452 0 0 10.7452 0 24C0 37.2548 10.7452 48 24 48Z" fill="#E2E7E9"/>
  <path d="M29.81 9.56987V14.8099H35.05L29.81 9.56987Z" fill="white"/>
  <path d="M27.81 15.8096V9.11963H14.42V10.9696H15.34C15.89 10.9696 16.34 11.4196 16.34 11.9696C16.34 12.5196 15.89 12.9696 15.34 12.9696H14.42V16.7396H15.34C15.89 16.7396 16.34 17.1896 16.34 17.7396C16.34 18.2896 15.89 18.7396 15.34 18.7396H14.42V22.5096H15.34C15.89 22.5096 16.34 22.9596 16.34 23.5096C16.34 24.0596 15.89 24.5096 15.34 24.5096H14.42V28.2796H15.34C15.89 28.2796 16.34 28.7296 16.34 29.2796C16.34 29.8296 15.89 30.2796 15.34 30.2796H14.42V34.0496H15.34C15.89 34.0496 16.34 34.4996 16.34 35.0496C16.34 35.5996 15.89 36.0496 15.34 36.0496H14.42V37.8996H35.5V16.8096H28.81C28.25 16.8096 27.81 16.3596 27.81 15.8096ZM19.19 14.0996C19.19 13.9596 19.3 13.8496 19.44 13.8496H24.71C24.85 13.8496 24.96 13.9596 24.96 14.0996V15.5996C24.96 15.7396 24.85 15.8496 24.71 15.8496H19.44C19.3 15.8496 19.19 15.7396 19.19 15.5996V14.0996ZM31.69 32.8996C31.69 33.0396 31.58 33.1496 31.44 33.1496H19.44C19.3 33.1496 19.19 33.0396 19.19 32.8996V31.3996C19.19 31.2596 19.3 31.1496 19.44 31.1496H31.44C31.58 31.1496 31.69 31.2596 31.69 31.3996V32.8996ZM31.69 27.1296C31.69 27.2696 31.58 27.3796 31.44 27.3796H19.44C19.3 27.3796 19.19 27.2696 19.19 27.1296V25.6296C19.19 25.4896 19.3 25.3796 19.44 25.3796H31.44C31.58 25.3796 31.69 25.4896 31.69 25.6296V27.1296ZM31.69 19.8696V21.3696C31.69 21.5096 31.58 21.6196 31.44 21.6196H19.44C19.3 21.6196 19.19 21.5096 19.19 21.3696V19.8696C19.19 19.7296 19.3 19.6196 19.44 19.6196H31.44C31.58 19.6196 31.69 19.7296 31.69 19.8696Z" fill="white"/>
  <path d="M19.19 19.8696V21.3696C19.19 21.5096 19.3 21.6196 19.44 21.6196H31.44C31.58 21.6196 31.69 21.5096 31.69 21.3696V19.8696C31.69 19.7296 31.58 19.6196 31.44 19.6196H19.44C19.3 19.6196 19.19 19.7296 19.19 19.8696Z" fill="#243142"/>
  <path d="M31.44 25.3799H19.44C19.3 25.3799 19.19 25.4899 19.19 25.6299V27.1299C19.19 27.2699 19.3 27.3799 19.44 27.3799H31.44C31.58 27.3799 31.69 27.2699 31.69 27.1299V25.6299C31.69 25.4999 31.58 25.3799 31.44 25.3799Z" fill="#243142"/>
  <path d="M31.44 31.1499H19.44C19.3 31.1499 19.19 31.2599 19.19 31.3999V32.8999C19.19 33.0399 19.3 33.1499 19.44 33.1499H31.44C31.58 33.1499 31.69 33.0399 31.69 32.8999V31.3999C31.69 31.2699 31.58 31.1499 31.44 31.1499Z" fill="#243142"/>
  <path d="M19.44 15.8501H24.71C24.85 15.8501 24.96 15.7401 24.96 15.6001V14.1001C24.96 13.9601 24.85 13.8501 24.71 13.8501H19.44C19.3 13.8501 19.19 13.9601 19.19 14.1001V15.6001C19.19 15.7301 19.3 15.8501 19.44 15.8501Z" fill="#243142"/>
  <path d="M37.21 14.1399L30.48 7.40986C30.39 7.31986 30.28 7.23986 30.16 7.18986C30.04 7.13986 29.91 7.10986 29.78 7.10986H28.82H13.42C12.87 7.10986 12.42 7.55986 12.42 8.10986V10.9599H11.5C10.95 10.9599 10.5 11.4099 10.5 11.9599C10.5 12.5099 10.95 12.9599 11.5 12.9599H12.42V16.7299H11.5C10.95 16.7299 10.5 17.1799 10.5 17.7299C10.5 18.2799 10.95 18.7299 11.5 18.7299H12.42V22.4999H11.5C10.95 22.4999 10.5 22.9499 10.5 23.4999C10.5 24.0499 10.95 24.4999 11.5 24.4999H12.42V28.2699H11.5C10.95 28.2699 10.5 28.7199 10.5 29.2699C10.5 29.8199 10.95 30.2699 11.5 30.2699H12.42V34.0399H11.5C10.95 34.0399 10.5 34.4899 10.5 35.0399C10.5 35.5899 10.95 36.0399 11.5 36.0399H12.42V38.8899C12.42 39.4399 12.87 39.8899 13.42 39.8899H36.5C37.05 39.8899 37.5 39.4399 37.5 38.8899V15.8099V14.8499C37.5 14.7199 37.47 14.5899 37.42 14.4699C37.37 14.3399 37.3 14.2299 37.21 14.1399ZM29.81 9.56986L35.05 14.8099H29.81V9.56986V9.56986ZM35.5 37.8799H14.42V36.0299H15.34C15.89 36.0299 16.34 35.5799 16.34 35.0299C16.34 34.4799 15.89 34.0299 15.34 34.0299H14.42V30.2599H15.34C15.89 30.2599 16.34 29.8099 16.34 29.2599C16.34 28.7099 15.89 28.2599 15.34 28.2599H14.42V24.4999H15.34C15.89 24.4999 16.34 24.0499 16.34 23.4999C16.34 22.9499 15.89 22.4999 15.34 22.4999H14.42V18.7299H15.34C15.89 18.7299 16.34 18.2799 16.34 17.7299C16.34 17.1799 15.89 16.7299 15.34 16.7299H14.42V12.9599H15.34C15.89 12.9599 16.34 12.5099 16.34 11.9599C16.34 11.4099 15.89 10.9599 15.34 10.9599H14.42V9.11986H27.8V15.8099C27.8 16.3599 28.25 16.8099 28.8 16.8099H35.49V37.8799H35.5Z" fill="#243142"/>
</svg>
