<svg width="48" height="48" viewBox="0 0 48 48" fill="none" xmlns="http://www.w3.org/2000/svg">
<g clip-path="url(#clip0_208_14718)">
<path d="M9.54924 36.295C12.9657 36.295 15.8034 33.8668 16.4669 30.6479H2.63159C3.29512 33.8668 6.13277 36.295 9.54924 36.295Z" fill="white"/>
<path d="M37.7844 36.295C41.2009 36.295 44.0385 33.8668 44.702 30.6479H30.8667C31.5303 33.8668 34.3679 36.295 37.7844 36.295Z" fill="white"/>
<path d="M39.0268 20.0174C38.0385 12.9445 32.2644 7.38215 25.0785 6.71862V3.82451H26.3067C26.4056 3.82451 26.4903 3.7398 26.4903 3.64098C26.3915 2.15862 25.1632 1.00098 23.6667 1.00098C22.1703 1.00098 20.942 2.15862 20.8432 3.64098C20.8432 3.7398 20.9279 3.82451 21.0267 3.82451H22.255V6.71862C15.0691 7.36804 9.29498 12.9304 8.30675 20.0174L0.0761598 28.248C-0.177958 28.488 -0.333252 28.841 -0.333252 29.2363C-0.333252 34.6857 4.09969 39.1186 9.5491 39.1186C14.9985 39.1186 19.4315 34.6857 19.4315 29.2363C19.4315 28.841 19.2762 28.488 19.022 28.2339L11.1162 20.328C11.9491 14.6527 16.5232 10.1916 22.255 9.55627V44.7657H18.0197C17.2432 44.7657 16.6079 45.401 16.6079 46.1774C16.6079 46.9539 17.2432 47.5892 18.0197 47.5892H29.3138C30.0903 47.5892 30.7256 46.9539 30.7256 46.1774C30.7256 45.401 30.0903 44.7657 29.3138 44.7657H25.0785V9.55627C30.8103 10.1916 35.3844 14.6527 36.2173 20.328L28.3115 28.2339C28.0573 28.488 27.902 28.841 27.902 29.2363C27.902 34.6857 32.335 39.1186 37.7844 39.1186C43.2338 39.1186 47.6667 34.6857 47.6667 29.2363C47.6667 28.841 47.5115 28.488 47.2573 28.2339L39.0268 20.0174ZM9.5491 36.2951C6.13263 36.2951 3.29498 33.8669 2.63145 30.648H16.4667C15.8032 33.8669 12.9656 36.2951 9.5491 36.2951ZM14.6173 27.8245H4.49498L9.5491 22.7563L14.6173 27.8245ZM37.7844 22.7563L42.8526 27.8245H32.7303L37.7844 22.7563ZM37.7844 36.2951C34.3679 36.2951 31.5303 33.8669 30.8667 30.648H44.702C44.0385 33.8669 41.2009 36.2951 37.7844 36.2951Z" fill="#243142"/>
</g>
<defs>
<clipPath id="clip0_208_14718">
<rect width="48" height="48" fill="white"/>
</clipPath>
</defs>
</svg>
