<svg width="16" height="17" viewBox="0 0 16 17" fill="none" xmlns="http://www.w3.org/2000/svg">
  <title data-svg="true">Right arrow</title>
  <g clip-path="url(#clip0_235_21179)">
    <path d="M16 8.48799C16 8.22299 15.895 7.96899 15.707 7.78099L8.707 0.791987C8.316 0.401987 7.683 0.400987 7.292 0.792987C6.902 1.18399 6.902 1.81699 7.293 2.20699L12.594 7.49999L1 7.49999C0.447 7.49999 0 7.94799 0 8.49999C0 9.05199 0.447 9.49999 1 9.49999L12.578 9.49999L7.292 14.793C6.902 15.184 6.902 15.817 7.293 16.207C7.488 16.402 7.744 16.5 8 16.5C8.256 16.5 8.513 16.402 8.708 16.207L15.675 9.22899C15.872 9.04599 16 8.78999 16 8.49999C16 8.49799 15.999 8.49599 15.999 8.49399C15.999 8.49199 16 8.48999 16 8.48799Z" fill="currentColor"/>
  </g>
  <defs>
    <clipPath id="clip0_235_21179">
      <rect width="16" height="16" fill="white" transform="translate(0 0.5)"/>
    </clipPath>
  </defs>
</svg>
