<svg width="16" height="17" viewBox="0 0 16 17" fill="none" xmlns="http://www.w3.org/2000/svg">
  <title data-svg="true">Left arrow</title>
  <g clip-path="url(#clip0_235_21035)">
    <path d="M15 7.49999H3.422L8.708 2.20699C9.098 1.81599 9.098 1.18299 8.707 0.792994C8.316 0.402994 7.683 0.401994 7.292 0.793994L0.325 7.77099C0.128 7.95399 0 8.20999 0 8.49999C0 8.50199 0.001 8.50399 0.001 8.50599C0.001 8.50799 0 8.50999 0 8.51199C0 8.77699 0.105 9.03099 0.293 9.21899L7.293 16.208C7.488 16.402 7.744 16.5 8 16.5C8.256 16.5 8.513 16.402 8.708 16.207C9.098 15.816 9.098 15.183 8.707 14.793L3.406 9.49999H15C15.553 9.49999 16 9.05199 16 8.49999C16 7.94799 15.553 7.49999 15 7.49999Z" fill="currentColor"/>
  </g>
  <defs>
    <clipPath id="clip0_235_21035">
      <rect width="16" height="16" fill="white" transform="translate(0 0.5)"/>
    </clipPath>
  </defs>
</svg>
