<svg width="16" height="16" viewBox="0 0 16 16" fill="none" xmlns="http://www.w3.org/2000/svg">
<path d="M10.75 15H2.25C1.561 15 1 14.439 1 13.75V5.25C1 4.561 1.561 4 2.25 4H6C6.553 4 7 4.448 7 5C7 5.552 6.553 6 6 6H3V13H10V10C10 9.447 10.447 9 11 9C11.553 9 12 9.447 12 10V13.75C12 14.439 11.439 15 10.75 15Z" fill="#243142"/>
<path d="M8.00001 9.00001C7.74401 9.00001 7.48801 8.90201 7.29301 8.70701C6.90201 8.31601 6.90201 7.68401 7.29301 7.29301L13.293 1.29301C13.684 0.902006 14.316 0.902006 14.707 1.29301C15.098 1.68401 15.098 2.31601 14.707 2.70701L8.70701 8.70701C8.51201 8.90201 8.25601 9.00001 8.00001 9.00001Z" fill="#243142"/>
<path d="M14 8C13.447 8 13 7.552 13 7V3H9C8.447 3 8 2.552 8 2C8 1.448 8.447 1 9 1H13.75C14.439 1 15 1.561 15 2.25V7C15 7.552 14.553 8 14 8Z" fill="#243142"/>
</svg>
