<svg width="16" height="16" viewBox="0 0 16 16" fill="none" xmlns="http://www.w3.org/2000/svg">
  <title data-svg="true">Share icon</title>
  <path d="M12.5714 5.7145C13.8337 5.7145 14.8571 4.69115 14.8571 3.42878C14.8571 2.16642 13.8337 1.14307 12.5714 1.14307C11.309 1.14307 10.2856 2.16642 10.2856 3.42878C10.2856 4.69115 11.309 5.7145 12.5714 5.7145Z" stroke="#243142" stroke-width="2" stroke-miterlimit="10" stroke-linecap="round"/>
  <path d="M12.5714 14.8571C13.8337 14.8571 14.8571 13.8337 14.8571 12.5714C14.8571 11.309 13.8337 10.2856 12.5714 10.2856C11.309 10.2856 10.2856 11.309 10.2856 12.5714C10.2856 13.8337 11.309 14.8571 12.5714 14.8571Z" stroke="#243142" stroke-width="2" stroke-miterlimit="10" stroke-linecap="round"/>
  <path d="M3.42878 10.2858C4.69115 10.2858 5.7145 9.26243 5.7145 8.00007C5.7145 6.7377 4.69115 5.71436 3.42878 5.71436C2.16642 5.71436 1.14307 6.7377 1.14307 8.00007C1.14307 9.26243 2.16642 10.2858 3.42878 10.2858Z" stroke="#243142" stroke-width="2" stroke-miterlimit="10" stroke-linecap="round"/>
  <path d="M5.71436 6.85723L10.5372 4.4458" stroke="#243142" stroke-width="2" stroke-miterlimit="10" stroke-linecap="round"/>
  <path d="M10.2858 11.4288L5.71436 9.14307" stroke="#243142" stroke-width="2" stroke-miterlimit="10" stroke-linecap="round"/>
</svg>
