<svg width="64" height="64" viewBox="0 0 64 64" fill="none" xmlns="http://www.w3.org/2000/svg">
<path d="M20.1267 58.0013C44.2778 58.0013 57.4874 37.9924 57.4874 20.6407C57.4874 20.0724 57.4874 19.5066 57.449 18.9434C60.0188 17.0846 62.2371 14.7831 64 12.1466C61.6037 13.209 59.0614 13.9054 56.4582 14.2125C59.1995 12.5717 61.2511 9.99062 62.231 6.94981C59.6536 8.47943 56.8337 9.55735 53.8931 10.137C51.9134 8.03188 49.295 6.63792 46.4432 6.17084C43.5914 5.70375 40.6651 6.18958 38.1172 7.55315C35.5694 8.91672 33.5419 11.082 32.3486 13.7139C31.1554 16.3459 30.8628 19.2977 31.5162 22.1127C26.2957 21.8508 21.1887 20.4941 16.5265 18.1306C11.8644 15.7671 7.75137 12.4497 4.4544 8.39365C2.77528 11.2843 2.26099 14.7063 3.01627 17.9628C3.77154 21.2193 5.73958 24.0655 8.51968 25.922C6.42995 25.8607 4.38573 25.297 2.56 24.2785V24.4449C2.56083 27.4764 3.61027 30.4144 5.53032 32.7605C7.45038 35.1066 10.1228 36.7162 13.0944 37.3165C11.1613 37.8438 9.133 37.9209 7.16544 37.5418C8.00484 40.1507 9.63848 42.432 11.838 44.067C14.0375 45.7019 16.6929 46.6087 19.433 46.6605C16.7105 48.8005 13.5928 50.3826 10.2583 51.3165C6.92382 52.2504 3.43791 52.5177 0 52.1031C6.00489 55.9565 12.9918 58.0005 20.1267 57.9911" fill="#1DA1F2"/>
</svg>
